<?xml version="1.0" encoding="UTF-8" standalone="no"?>
<svg
   xmlns:dc="http://purl.org/dc/elements/1.1/"
   xmlns:cc="http://creativecommons.org/ns#"
   xmlns:rdf="http://www.w3.org/1999/02/22-rdf-syntax-ns#"
   xmlns:svg="http://www.w3.org/2000/svg"
   xmlns="http://www.w3.org/2000/svg"
   xmlns:xlink="http://www.w3.org/1999/xlink"
   xmlns:sodipodi="http://sodipodi.sourceforge.net/DTD/sodipodi-0.dtd"
   xmlns:inkscape="http://www.inkscape.org/namespaces/inkscape"
   width="4500"
   height="2257"
   version="1.1"
   id="svg"
   inkscape:version="1.0.2 (e86c870879, 2021-01-15)"
   sodipodi:docname="locations.svg">
  <sodipodi:namedview
     id="namedview"
     pagecolor="#ffffff"
     bordercolor="#666666"
     borderopacity="1.0"
     inkscape:pageshadow="2"
     inkscape:pageopacity="0.0"
     inkscape:pagecheckerboard="0"
     inkscape:document-units="px"
     showgrid="true"
     inkscape:current-layer="items"
     fit-margin-top="0"
     fit-margin-left="0"
     fit-margin-right="0"
     fit-margin-bottom="0"
     units="px"
     inkscape:document-rotation="0"
     inkscape:zoom="0.29088889"
     inkscape:cx="2250"
     inkscape:cy="1128.5"
     inkscape:window-width="1920"
     inkscape:window-height="1026"
     inkscape:window-x="0"
     inkscape:window-y="27"
     inkscape:window-maximized="1" />
  <g
     inkscape:groupmode="layer"
     id="items"
     inkscape:label="Features">
    <rect style="fill:#000" width="113" height="35" x="483" y="237" inkscape:label="Hailberg"></rect>
    <rect style="fill:#000" width="80" height="45" x="608" y="267" inkscape:label="Here be Moose"></rect>
    <rect style="fill:#000" width="129" height="55" x="847" y="25" inkscape:label="North Polar Lair"></rect>
    <rect style="fill:#000" width="157" height="46" x="1082" y="91" inkscape:label="Home of the Ampitheres &amp; Hydras"></rect>
    <rect style="fill:#000" width="172" height="21" x="1347" y="80" inkscape:label="Frozen North"></rect>
    <rect style="fill:#000" width="84" height="20" x="1523" y="359" inkscape:label="Statusburg"></rect>
    <rect style="fill:#000" width="99" height="22" x="1606" y="151" inkscape:label="Yakyakistan"></rect>
    <rect style="fill:#000" width="169" height="29" x="1861" y="12" inkscape:label="Mount Everhoof"></rect>
    <rect style="fill:#000" width="146" height="19" x="1853" y="213" inkscape:label="Crystal Empire"></rect>
    <rect style="fill:#000" width="58" height="29" x="1988" y="477" inkscape:label="Neighagra Falls"></rect>
    <rect style="fill:#000" width="156" height="50" x="2145" y="371" inkscape:label="Crystal Mountains"></rect>
    <rect style="fill:#000" width="118" height="23" x="2291" y="211" inkscape:label="Yaket Range"></rect>
    <rect style="fill:#000" width="58" height="37" x="2286" y="266" inkscape:label="Rainbow Falls"></rect>
    <rect style="fill:#000" width="61" height="10" x="2262" y="513" inkscape:label="Our Town"></rect>
    <rect style="fill:#000" width="99" height="16" x="2461" y="505" inkscape:label="Manehattan"></rect>
    <rect style="fill:#000" width="48" height="34" x="2584" y="526" inkscape:label="Griffish isles"></rect>
    <rect style="fill:#000" width="59" height="32" x="2567" y="401" inkscape:label="Starlight's Cave"></rect>
    <rect style="fill:#000" width="85" height="19" x="2676" y="423" inkscape:label="Trottingham"></rect>
    <rect style="fill:#000" width="61" height="14" x="2823" y="483" inkscape:label="Guto River"></rect>
    <rect style="fill:#000" width="61" height="147" x="3005" y="417" inkscape:label="The Himallamas"></rect>
    <rect style="fill:#000" width="63" height="36" x="2837" y="338" inkscape:label="Griffonstone Station"></rect>
    <rect style="fill:#000" width="157" height="54" x="2721" y="219" inkscape:label="Bugbear Territory"></rect>
    <rect style="fill:#000" width="177" height="17" x="3188" y="49" inkscape:label="Mount Metazoa"></rect>
    <rect style="fill:#000" width="96" height="21" x="3223" y="123" inkscape:label="Hall of Unity"></rect>
    <rect style="fill:#000" width="156" height="34" x="3381" y="314" inkscape:label="Desolate Wild"></rect>
    <rect style="fill:#000" width="92" height="48" x="3579" y="332" inkscape:label="Here be Reindeer"></rect>
    <rect style="fill:#000" width="93" height="15" x="3677" y="482" inkscape:label="Ho Chi Mane"></rect>
    <rect style="fill:#000" width="69" height="18" x="3685" y="270" inkscape:label="Tundra"></rect>
    <rect style="fill:#000" width="108" height="22" x="4077" y="237" inkscape:label="Outpost Alpha"></rect>
    <rect style="fill:#000" width="178" height="22" x="4248" y="75" inkscape:label="Great Ice Plateau"></rect>
    <rect style="fill:#000" width="80" height="24" x="4091" y="383" inkscape:label="Thrace"></rect>
    <rect style="fill:#000" width="61" height="15" x="3923" y="649" inkscape:label="Kouma"></rect>
    <rect style="fill:#000" width="82" height="21" x="3938" y="784" inkscape:label="Revelry Isle"></rect>
    <rect style="fill:#000" width="78" height="22" x="3589" y="758" inkscape:label="Shanghay"></rect>
    <rect style="fill:#000" width="115" height="20" x="3479" y="656" inkscape:label="Banyan Timbers"></rect>
    <rect style="fill:#000" width="117" height="46" x="3306" y="553" inkscape:label="Graymourne (Ruins)"></rect>
    <rect style="fill:#000" width="76" height="14" x="3200" y="657" inkscape:label="Cobblerock"></rect>
    <rect style="fill:#000" width="57" height="18" x="3330" y="760" inkscape:label="Aster Rill"></rect>
    <rect style="fill:#000" width="94" height="21" x="3325" y="920" inkscape:label="Trotsylvania"></rect>
    <rect style="fill:#000" width="107" height="20" x="3321" y="1085" inkscape:label="Serpent's Creek"></rect>
    <rect style="fill:#000" width="77" height="32" x="3561" y="1005" inkscape:label="Peryton Peak"></rect>
    <rect style="fill:#000" width="120" height="24" x="4003" y="1027" inkscape:label="Riverlands"></rect>
    <rect style="fill:#000" width="155" height="70" x="4277" y="1171" inkscape:label="Pranceific Ocean"></rect>
    <rect style="fill:#000" width="98" height="30" x="3932" y="1505" inkscape:label="Ng'amia"></rect>
    <rect style="fill:#000" width="116" height="29" x="3810" y="1375" inkscape:label="Fillyppines"></rect>
    <rect style="fill:#000" width="66" height="16" x="3827" y="1258" inkscape:label="Maneila"></rect>
    <rect style="fill:#000" width="125" height="22" x="3589" y="1350" inkscape:label="Litterbox Ridge"></rect>
    <rect style="fill:#000" width="88" height="19" x="3564" y="1476" inkscape:label="Panthera"></rect>
    <rect style="fill:#000" width="51" height="19" x="3421" y="1549" inkscape:label="Henry"></rect>
    <rect style="fill:#000" width="124" height="35" x="3412" y="1668" inkscape:label="Abyssinia"></rect>
    <rect style="fill:#000" width="89" height="22" x="3607" y="1713" inkscape:label="Tabbytown"></rect>
    <rect style="fill:#000" width="40" height="14" x="3724" y="1619" inkscape:label="Siam"></rect>
    <rect style="fill:#000" width="83" height="26" x="3868" y="1767" inkscape:label="Sydneigh"></rect>
    <rect style="fill:#000" width="70" height="16" x="3688" y="1864" inkscape:label="Ornithia"></rect>
    <rect style="fill:#000" width="70" height="16" x="3565" y="1964" inkscape:label="Catskills"></rect>
    <rect style="fill:#000" width="95" height="23" x="3453" y="2183" inkscape:label="Aquastria"></rect>
    <rect style="fill:#000" width="87" height="45" x="3415" y="2210" inkscape:label="The Sealion Kingdom"></rect>
    <rect style="fill:#000" width="93" height="17" x="3256" y="1832" inkscape:label="Colombuck"></rect>
    <rect style="fill:#000" width="79" height="22" x="3127" y="1859" inkscape:label="Hoarfrost"></rect>
    <rect style="fill:#000" width="136" height="22" x="3069" y="1680" inkscape:label="Shire Lanka"></rect>
    <rect style="fill:#000" width="148" height="80" x="2811" y="1741" inkscape:label="Neighdian Deep"></rect>
    <rect style="fill:#000" width="60" height="47" x="2803" y="1569" inkscape:label="Lost Lagoon"></rect>
    <rect style="fill:#000" width="93" height="13" x="2911" y="1361" inkscape:label="Kirin Grove"></rect>
    <rect style="fill:#000" width="94" height="61" x="3066" y="1456" inkscape:label="Here be kelpies"></rect>
    <rect style="fill:#000" width="92" height="46" x="3292" y="1264" inkscape:label="Trotting Terrains"></rect>
    <rect style="fill:#000" width="110" height="53" x="3026" y="1250" inkscape:label="Halflinger Grove"></rect>
    <rect style="fill:#000" width="173" height="46" x="2902" y="1128" inkscape:label="Home of the Dragons &amp; Wyverns"></rect>
    <rect style="fill:#000" width="100" height="13" x="2926" y="1031" inkscape:label="Eastern Lair"></rect>
    <rect style="fill:#000" width="133" height="36" x="3130" y="961" inkscape:label="Stampede Stream"></rect>
    <rect style="fill:#000" width="112" height="48" x="3122" y="716" inkscape:label="Sugar Maple Grove"></rect>
    <rect style="fill:#000" width="104" height="24" x="2798" y="746" inkscape:label="Griffonstone"></rect>
    <rect style="fill:#000" width="113" height="66" x="2567" y="927" inkscape:label="Celestial Sea"></rect>
    <rect style="fill:#000" width="128" height="70" x="2373" y="1088" inkscape:label="Hayseed Swamps"></rect>
    <rect style="fill:#000" width="62" height="31" x="2394" y="911" inkscape:label="Horseshoe Bay"></rect>
    <rect style="fill:#000" width="79" height="16" x="2424" y="792" inkscape:label="Baltimare"></rect>
    <rect style="fill:#000" width="96" height="22" x="2361" y="675" inkscape:label="Fillydelphia"></rect>
    <rect style="fill:#000" width="57" height="28" x="2240" y="596" inkscape:label="Hollow Shades"></rect>
    <rect style="fill:#000" width="48" height="27" x="2133" y="632" inkscape:label="Foal Mountain"></rect>
    <rect style="fill:#000" width="70" height="33" x="2036" y="744" inkscape:label="Rambling rock ridge"></rect>
    <rect style="fill:#000" width="29" height="9" x="1953" y="868" inkscape:label="Ruins"></rect>
    <rect style="fill:#000" width="40" height="33" x="2041" y="887" inkscape:label="Dodge City"></rect>
    <rect style="fill:#000" width="83" height="19" x="2078" y="1113" inkscape:label="Badlands"></rect>
    <rect style="fill:#000" width="62" height="10" x="2168" y="1095" inkscape:label="Canter Creek"></rect>
    <rect style="fill:#000" width="154" height="25" x="2194" y="1290" inkscape:label="Forbidden Jungle"></rect>
    <rect style="fill:#000" width="62" height="16" x="2259" y="1492" inkscape:label="Foaledo"></rect>
    <rect style="fill:#000" width="53" height="25" x="2379" y="1448" inkscape:label="Black Hoof Bay"></rect>
    <rect style="fill:#000" width="57" height="28" x="2391" y="1623" inkscape:label="Black Skull Island"></rect>
    <rect style="fill:#000" width="80" height="15" x="2406" y="1792" inkscape:label="Southstock"></rect>
    <rect style="fill:#000" width="92" height="13" x="2493" y="1934" inkscape:label="Mount Aris"></rect>
    <rect style="fill:#000" width="116" height="26" x="2135" y="1989" inkscape:label="Basalt Beaches"></rect>
    <rect style="fill:#000" width="123" height="13" x="2108" y="1839" inkscape:label="Pine Needle Barrens"></rect>
    <rect style="fill:#000" width="132" height="15" x="1982" y="1780" inkscape:label="South Central Peak"></rect>
    <rect style="fill:#000" width="96" height="15" x="1901" y="1835" inkscape:label="Wicked Woods"></rect>
    <rect style="fill:#000" width="224" height="85" x="1645" y="1918" inkscape:label="Storm King's Realm (Hippogriff Colony)"></rect>
    <rect style="fill:#000" width="62" height="36" x="1503" y="1649" inkscape:label="Nightmare Cliffs"></rect>
    <rect style="fill:#000" width="78" height="13" x="1484" y="1550" inkscape:label="The Guardians"></rect>
    <rect style="fill:#000" width="68" height="11" x="1612" y="1524" inkscape:label="The Crawlers"></rect>
    <rect style="fill:#000" width="66" height="10.000024" x="1634" y="1617" inkscape:label="The Climbers"></rect>
    <rect style="fill:#000" width="69" height="12" x="1676" y="1572" inkscape:label="The Runners"></rect>
    <rect style="fill:#000" width="70" height="13" x="1836" y="1371" inkscape:label="The Hunters"></rect>
    <rect style="fill:#000" width="76" height="16" x="1743" y="1615" inkscape:label="The Defenders"></rect>
    <rect style="fill:#000" width="55" height="9" x="1769" y="1754" inkscape:label="The Walkers"></rect>
    <rect style="fill:#000" width="76" height="11" x="1803" y="1669" inkscape:label="New Haven"></rect>
    <rect style="fill:#000" width="71" height="19" x="1993" y="1621" inkscape:label="Klugetown"></rect>
    <rect style="fill:#000" width="179" height="27" x="1970" y="1543" inkscape:label="Bone Dry Desert"></rect>
    <rect style="fill:#000" width="54" height="18" x="1683" y="1304" inkscape:label="Irwind"></rect>
    <rect style="fill:#000" width="78" height="32" x="1836" y="1217" inkscape:label="Arimaspi Territory"></rect>
    <rect style="fill:#000" width="154" height="21" x="1836" y="1086" inkscape:label="Macintosh Hills"></rect>
    <rect style="fill:#000" width="75" height="19" x="1853" y="1017" inkscape:label="Appleloosa"></rect>
    <rect style="fill:#000" width="63" height="78" x="1799" y="906" inkscape:label="Ghastly Gorge"></rect>
    <rect style="fill:#000" width="86" height="17" x="1842" y="803" inkscape:label="Everfree forest"></rect>
    <rect style="fill:#000" width="72" height="22" x="1831" y="714" inkscape:label="Ponyville"></rect>
    <rect style="fill:#000" width="85" height="18" x="1816" y="550" inkscape:label="Canterlot"></rect>
    <rect style="fill:#000" width="90" height="16" x="1800" y="409" inkscape:label="Cloudsdale"></rect>
    <rect style="fill:#000" width="52" height="28" x="1589" y="488" inkscape:label="Galloping Gorge"></rect>
    <rect style="fill:#000" width="59" height="14" x="1430" y="575" inkscape:label="Tall Tale"></rect>
    <rect style="fill:#000" width="78" height="15" x="1352" y="486" inkscape:label="Vanhoover"></rect>
    <rect style="fill:#000" width="67" height="34" x="1284" y="582" inkscape:label="Seaward Shoals"></rect>
    <rect style="fill:#000" width="92" height="90" x="1125" y="452" inkscape:label="North Luna Ocean"></rect>
    <rect style="fill:#000" width="56" height="38" x="1092" y="634" inkscape:label="Sire's Hollow"></rect>
    <rect style="fill:#000" width="67" height="36" x="1029" y="884" inkscape:label="Umberfoal entrance"></rect>
    <rect style="fill:#000" width="75" height="32" x="797" y="567" inkscape:label="Sweet Acorn Orchard"></rect>
    <rect style="fill:#000" width="135" height="23" x="539" y="611" inkscape:label="Taiga Range"></rect>
    <rect style="fill:#000" width="172" height="26" x="563" y="823" inkscape:label="Wandering Woods"></rect>
    <rect style="fill:#000" width="184" height="118" x="799" y="959" inkscape:label="Jackalope Slopes"></rect>
    <rect style="fill:#000" width="116" height="21" x="956" y="1093" inkscape:label="Redwood Range"></rect>
    <rect style="fill:#000" width="98" height="24" x="980" y="1173" inkscape:label="Casaflanka"></rect>
    <rect style="fill:#000" width="97" height="21" x="1088" y="1015" inkscape:label="Hope Hollow"></rect>
    <rect style="fill:#000" width="70" height="13" x="1220" y="865" inkscape:label="Tartarus"></rect>
    <rect style="fill:#000" width="134" height="20" x="1414" y="673" inkscape:label="Smokey Mountains"></rect>
    <rect style="fill:#000" width="56" height="29" x="1565" y="806" inkscape:label="White Tail Woods"></rect>
    <rect style="fill:#000" width="57" height="16" x="1664" y="990" inkscape:label="Rock farm"></rect>
    <rect style="fill:#000" width="40" height="15" x="1566" y="1040" inkscape:label="Hill Top"></rect>
    <rect style="fill:#000" width="68" height="21" x="1533" y="936" inkscape:label="Applewood"></rect>
    <rect style="fill:#000" width="72" height="15" x="1448" y="934" inkscape:label="Las Pegasus"></rect>
    <rect style="fill:#000" width="145" height="45" x="1440" y="1002" inkscape:label="San Palomino desert"></rect>
    <rect style="fill:#000" width="73" height="21" x="1473" y="1040" inkscape:label="Somnambula"></rect>
    <rect style="fill:#000" width="112" height="105" x="1229" y="1215" inkscape:label="South Luna Ocean"></rect>
    <rect style="fill:#000" width="146" height="37" x="1251" y="1395" inkscape:label="Evenchain Isles"></rect>
    <rect style="fill:#000" width="122" height="26" x="969" y="1351" inkscape:label="Zebrabwe"></rect>
    <rect style="fill:#000" width="84" height="22" x="993" y="1578" inkscape:label="Djenneigh"></rect>
    <rect style="fill:#000" width="77" height="18" x="929" y="1749" inkscape:label="Istanbull"></rect>
    <rect style="fill:#000" width="83" height="34" x="1084" y="1742" inkscape:label="Greymane Bush"></rect>
    <rect style="fill:#000" width="226" height="69" x="1071" y="1917" inkscape:label="Meditermareian Sea"></rect>
    <rect style="fill:#000" width="131" height="24" x="892" y="2072" inkscape:label="Aashtethos"></rect>
    <rect style="fill:#000" width="202" height="38" x="681" y="1770" inkscape:label="Saddle Arabia"></rect>
    <rect style="fill:#000" width="85" height="44" x="659" y="1617" inkscape:label="Cockatrice Lair"></rect>
    <rect style="fill:#000" width="85" height="19" x="480" y="1542" inkscape:label="Romore"></rect>
    <rect style="fill:#000" width="61" height="44" x="398" y="1463" inkscape:label="Here be Kirins"></rect>
    <rect style="fill:#000" width="81" height="36" x="377" y="1691" inkscape:label="Bladerock Pass"></rect>
    <rect style="fill:#000" width="170" height="50" x="290" y="1896" inkscape:label="Home of the Drakes &amp; Lindwyrms"></rect>
    <rect style="fill:#000" width="300" height="121" x="149" y="1993" inkscape:label="Great Blizzard Barrier"></rect>
    <rect style="fill:#000" width="118" height="54" x="260" y="1730" inkscape:label="Southwest Lair"></rect>
    <rect style="fill:#000" width="88" height="27" x="41" y="1450" inkscape:label="Zebrat"></rect>
    <rect style="fill:#000" width="77" height="55" x="209" y="1237" inkscape:label="Here be Abadi"></rect>
    <rect style="fill:#000" width="96" height="27" x="99" y="1210" inkscape:label="Farasi"></rect>
    <rect style="fill:#000" width="96" height="25" x="89" y="1048" inkscape:label="Hakoda"></rect>
    <rect style="fill:#000" width="106" height="49" x="215" y="598" inkscape:label="Changeling Hive"></rect>
    <rect style="fill:#000" width="130" height="23" x="31" y="400" inkscape:label="Outpost Machina"></rect>
  </g>
  <g
     inkscape:label="Map"
     id="map"
     style="opacity:0.5"
     sodipodi:insensitive="true">
    <image
       xlink:href="2743903.png"
       id="map_image"
       style="image-rendering:optimizeSpeed" />
  </g>
</svg>
