<?xml version="1.0" encoding="UTF-8" standalone="no"?>
<svg xmlns="http://www.w3.org/2000/svg" version="1.1" width="64" height="64">
  <path
     fill="#0085ff"
     d="M 13.873,7.5385685 C 21.21,13.065568 29.103,24.270568 32,30.283568 v 15.882 c 0,-0.338 -0.13,0.044 -0.41,0.867 -1.512,4.456 -7.418,21.847 -20.923,7.944 -7.111,-7.32 -3.819,-14.64 9.125,-16.85 -7.405,1.264 -15.73,-0.825 -18.014,-9.015 C 1.12,26.755568 0,12.243568 0,10.283568 0,0.46556847 8.579,3.5515685 13.873,7.5385685 Z m 36.254,0 C 42.79,13.065568 34.897,24.270568 32,30.283568 v 15.882 c 0,-0.338 0.13,0.044 0.41,0.867 1.512,4.456 7.418,21.847 20.923,7.944 7.111,-7.32 3.819,-14.64 -9.125,-16.85 7.405,1.264 15.73,-0.825 18.014,-9.015 0.658,-2.356 1.778,-16.868 1.778,-18.828 C 64,0.46556847 55.422,3.5515685 50.127,7.5385685 Z"
     id="path2"
     style="fill:#eeeeee" />
</svg>
